<?xml version="1.0" encoding="utf-8"?>
<!-- Generator: Adobe Illustrator 25.3.0, SVG Export Plug-In . SVG Version: 6.00 Build 0)  -->
<svg version="1.1" id="Layer_1" xmlns="http://www.w3.org/2000/svg" xmlns:xlink="http://www.w3.org/1999/xlink" x="0px" y="0px"
	 viewBox="0 0 512 137.9" style="enable-background:new 0 0 512 137.9;" xml:space="preserve">
<path d="M164.7,126.3V21.2h5.7v16.5c0.7-0.7,1.3-1.5,1.9-2.3c4.8-9.9,14.8-16.1,25.8-16c13-0.4,23.6,4.4,29.8,16
	c8,14.6,8.5,32.2,1.2,47.1c-5.8,13-20.1,19.4-35.4,17.1c-9.7-0.8-18.3-6.5-22.8-15.1v41.8L164.7,126.3z M170.4,58.4l1.3,12.3
	c2.3,14.1,10.6,22.4,23.6,23.9c12.6,2.1,25-5.1,29.5-17.1c5.1-12.1,4.7-25.8-1-37.6C219,29.3,207.7,23,196.1,24.7
	c-10.9,0.8-20.1,8.4-22.9,18.9C172,48.5,171.1,53.4,170.4,58.4L170.4,58.4z M350.7,72.7c-1.8,15.3-14.6,26.9-30.1,27.2
	c-23.9,1.2-35.2-14.7-36.9-33c-1.2-10,0.4-20.1,4.7-29.1c6.1-12.8,19.8-20.1,33.8-18.1c13.3,1.1,24.4,10.7,27.6,23.7
	c1.2,5.8,2.1,11.6,2.7,17.5h-62.8c-1.2,16.6,7.8,30,20.4,33.2c15.8,3.9,29.2-3,34.1-17.9C345.3,72.1,347.2,71.6,350.7,72.7
	L350.7,72.7z M289.6,55.4h56.2c-0.4-17.7-11.4-30.6-26.3-30.7C302.5,24.4,290.3,36.7,289.6,55.4z M362.3,73h5.5
	c0.4,8.3,5.4,15.6,13,19c9.4,4.2,20.3,4,29.4-0.8c5.1-2.3,8.2-7.5,7.8-13c0.3-5.4-3-10.3-8.1-12c-6.1-2.3-12.5-3.5-18.7-5.5
	c-6.4-1.8-12.7-4.1-18.8-6.9c-9.9-4.9-10.6-23.8,0.7-29.8c11.7-6.6,26-6.8,37.9-0.6c7.3,4,11.3,12.1,10.1,20.4h-4.7
	c0-0.2-0.4-0.4-0.4-0.7c-0.6-15.1-13.2-19.8-26.8-18.4c-4.1,0.5-8,1.7-11.7,3.5c-4.5,2.1-7.2,6.7-6.8,11.7c0,4.9,3.1,9.3,7.8,11
	c5.9,2.2,12.2,3.6,18.4,5.3l14.8,3.9c6.9,2.3,11.7,8.6,12,15.8c1.2,8-2.9,15.8-10.1,19.4c-13,7.3-34.3,5.4-43.8-3.9
	C365,86.6,362.3,79.9,362.3,73L362.3,73z M493.7,44h-5.2c0-0.7-0.3-1.4-0.4-1.9c-0.2-8-5.9-14.8-13.8-16.2c-7.2-2.1-14.8-1.7-21.8,1
	c-5.6,1.6-9.5,6.8-9.6,12.6c-0.2,5.8,3.7,10.9,9.3,12.3l23.6,6.1c2.6,0.6,5.1,1.4,7.5,2.3c7.5,2.7,12.6,9.7,12.9,17.7
	c0.2,8-4.5,15.3-11.9,18.4c-11.1,5-23.8,5.2-35,0.4c-9.3-4-15.1-13.4-14.6-23.5h5c1.9,9.2,8.2,16.8,16.8,20.4
	c8.6,3.6,18.5,2.7,26.3-2.4c4.8-2.5,7.7-7.6,7.5-13c0.2-5.4-3.1-10.2-8.2-11.9c-6.1-2.3-12.5-3.5-18.7-5.5
	c-6.5-1.8-12.8-4.1-18.9-6.8c-9.7-4.8-10.5-23.5,0.6-29.5c11.9-6.9,26.5-7.1,38.5-0.4C490.8,28.1,494.6,35.9,493.7,44L493.7,44z
	 M155.3,97.9c-4.2,1.6-8.9-0.2-11-4.2L124.2,66l-2.9-3.9L98,93.8c-2,3.8-6.5,5.6-10.5,4.1l30-40.3L89.6,21.2
	c4.1-1.5,8.8,0.1,11.1,3.9l20.8,28.1l20.9-28c2-3.7,6.5-5.4,10.4-3.9L142,35.7l-14.7,19.1c-1.6,1.4-1.7,3.9-0.3,5.5
	c0.1,0.1,0.2,0.2,0.3,0.3L155.3,97.9L155.3,97.9z M282.8,20.9v5.5c-15.5-1-28.9,10.7-29.9,26.3c-0.1,0.9-0.1,1.9,0,2.8
	c0,12.8,0,25.6,0,38.4v4.3h-5.6V21.2h5.5V37C259.5,25.5,269.8,21.2,282.8,20.9L282.8,20.9z M15.6,57.1L18.1,45
	C24.8,21.2,52.2,11.2,71,26c11,8.7,13.8,20.9,13.2,34.8H22.1c-1,24.7,16.8,39.6,39.6,32c7.5-2.7,13.2-9,15-16.7
	c1.2-3.9,3.2-4.5,6.8-3.4c-1.2,9.6-6.8,18.1-15.1,23c-13.9,7.6-31,5.4-42.5-5.4c-5.5-6.2-8.9-14.1-9.6-22.5c0-1.4-0.5-2.6-0.8-3.9
	C15.7,61.6,15.6,59.3,15.6,57.1L15.6,57.1z M22.2,55.5h56.2c-0.4-17.9-11.7-30.6-26.7-30.7C34.9,24.5,22.9,36.9,22.2,55.5L22.2,55.5
	z"/>
</svg>
