<svg id="ef3e82c9-8c1b-465f-a123-dace36493736" data-name="Layer 1" xmlns="http://www.w3.org/2000/svg" width="512" height="512" viewBox="0 0 512 512"><defs><style>.a371e9b2-3fa8-4a6c-a156-2dd36d21de00{fill:#7fdf64;}</style></defs><path class="a371e9b2-3fa8-4a6c-a156-2dd36d21de00" d="M185.14,444.74h0L163,483.35,62.57,458.09,99,394.94a5.33,5.33,0,0,0,.85.72c1,1,2,1.8,3,2.65a4.75,4.75,0,0,0,1.21,1c1.08.84,2,1.8,3.12,2.64l2,1.69v.12c1,.72,1.8,1.44,2.77,2.16a.12.12,0,0,1,.12.12,6.66,6.66,0,0,1,1,.85c.12.12.24.24.36.24l.24.24,4.33,3.25c1.08.72,2,1.56,3.13,2.28.24.12.36.24.6.36.72.48,1.44,1.08,2.28,1.57l1.09.72c.84.6,1.8,1.2,2.76,1.8L129,418c3.37,2.17,6.85,4.33,10.34,6.38s7.1,4,10.59,5.77c.36.24.84.36,1.2.6l2.89,1.45c.36.24.84.36,1.2.6a30.84,30.84,0,0,0,2.89,1.32h.12c1.2.6,2.4,1.09,3.61,1.69,1.68.72,3.49,1.56,5.17,2.28h.12a8.33,8.33,0,0,0,1.56.6c1.21.49,2.53,1.09,3.73,1.45.72.24,1.45.6,2.17.84,1.44.6,3,1.08,4.45,1.56,0,.12.12.12.24.12C181.41,443.54,183.22,444.14,185.14,444.74Z"/><path class="a371e9b2-3fa8-4a6c-a156-2dd36d21de00" d="M280.05,353.56,130.53,267.31s80.24-140.86-6.37-238.66a234.56,234.56,0,0,0-70.5,76.14C-2.39,201.87,19,322.52,98.89,395.06l25.63-44.51,86.25,49.8L185,444.86a234.18,234.18,0,0,0,274-106,231.61,231.61,0,0,0,30.67-99.12C362,213.66,280.05,353.56,280.05,353.56Zm-2.76,4.81-32,55.33L95.77,327.45l32-55.33Z"/></svg>