<svg id="ad95a143-ad93-4497-bdcd-6542522d025a" data-name="aa13ff36-e338-4db8-9c34-9c7e98ed9284" xmlns="http://www.w3.org/2000/svg" xmlns:xlink="http://www.w3.org/1999/xlink" width="512" height="512" viewBox="0 0 512 512"><defs><style>.e15d7b4e-970f-46f2-baee-fdef0c8a4b62{fill:none;}.a84e9044-48e1-4011-b584-f88d156083b8{fill:url(#f6c3804d-4f98-4560-9005-f7fb39d03c75);}.e1203b93-b79f-4d72-b5e2-5ddaf8093395{fill:url(#b0c21753-87e9-4ec5-a503-8ef983d37a8e);}.a18a0db8-f530-436f-b135-0fe4eaa88b63{fill:url(#f66b0b1c-acf3-4065-ae36-f97fa5fb47e9);}.e8c26dea-bcd0-41d5-8b5e-33847dc69aac{fill:url(#e5e1c8d6-b99d-4829-8718-2efd6b3f6581);}.a1e58232-23dd-4a44-a4e6-3f4d4bed980c{fill:url(#be66a004-d34e-4d6b-a4ce-736918747e2d);}.bdffd466-34fe-4bb5-980b-d49d4dc43ade{fill:#f2f2f2;}</style><linearGradient id="f6c3804d-4f98-4560-9005-f7fb39d03c75" x1="67.9" y1="213.34" x2="148.59" y2="293.96" gradientTransform="matrix(1, 0, 0, -1, 0, 513.63)" gradientUnits="userSpaceOnUse"><stop offset="0" stop-color="#8e5b22"/><stop offset="0.06" stop-color="#9a682b"/><stop offset="0.17" stop-color="#ba8a43"/><stop offset="0.28" stop-color="#e3b562"/><stop offset="0.78" stop-color="#e6b964"/><stop offset="1" stop-color="#8c632e"/></linearGradient><linearGradient id="b0c21753-87e9-4ec5-a503-8ef983d37a8e" x1="142.93" y1="243.38" x2="221.22" y2="321.67" xlink:href="#f6c3804d-4f98-4560-9005-f7fb39d03c75"/><linearGradient id="f66b0b1c-acf3-4065-ae36-f97fa5fb47e9" x1="202.62" y1="257.99" x2="262.85" y2="318.17" xlink:href="#f6c3804d-4f98-4560-9005-f7fb39d03c75"/><linearGradient id="e5e1c8d6-b99d-4829-8718-2efd6b3f6581" x1="274.7" y1="211.73" x2="333.5" y2="270.53" xlink:href="#f6c3804d-4f98-4560-9005-f7fb39d03c75"/><linearGradient id="be66a004-d34e-4d6b-a4ce-736918747e2d" x1="319.54" y1="240.66" x2="381.96" y2="303.07" xlink:href="#f6c3804d-4f98-4560-9005-f7fb39d03c75"/></defs><rect class="e15d7b4e-970f-46f2-baee-fdef0c8a4b62" x="12.6" y="120.19" width="486.8" height="271.62"/><path class="a84e9044-48e1-4011-b584-f88d156083b8" d="M138.39,211.76v73.39L98.19,330.6V211.76a5.56,5.56,0,0,1,5.55-5.56h29.1a5.56,5.56,0,0,1,5.55,5.56Z"/><path class="e1203b93-b79f-4d72-b5e2-5ddaf8093395" d="M199,172V298.79a22.21,22.21,0,0,1-30.18-2.71l-10-11.11V172a5.61,5.61,0,0,1,5.61-5.55h29.28A5.56,5.56,0,0,1,199,172Z"/><path class="a18a0db8-f530-436f-b135-0fe4eaa88b63" d="M259.65,194.55V245l-2.11-5q0-.3,0-.6l-.73-1.15a7.6,7.6,0,0,0-10.66-1.4,7.48,7.48,0,0,0-1.41,1.4L219.69,272.3V194.55a5.62,5.62,0,0,1,5.56-5.61H254a5.61,5.61,0,0,1,5.61,5.61Z"/><path class="e8c26dea-bcd0-41d5-8b5e-33847dc69aac" d="M320.43,232.16V322.7a22.42,22.42,0,0,1-32.59-10.26l-7.61-18.11V232.16a5.62,5.62,0,0,1,5.62-5.62h29a5.55,5.55,0,0,1,5.55,5.56Z"/><path class="a1e58232-23dd-4a44-a4e6-3f4d4bed980c" d="M380.79,211.76v18.1l-40.08,64.29V211.76a5.56,5.56,0,0,1,5.56-5.56h29a5.55,5.55,0,0,1,5.55,5.56Z"/><path class="bdffd466-34fe-4bb5-980b-d49d4dc43ade" d="M441.15,120.19l-2.65,73.46-25.05-15.57-32.66,52-40.08,64.1-13.52,21.61a23.26,23.26,0,0,1-6.76,7,22.42,22.42,0,0,1-32.59-10.26l-7.61-18.11-17.62-42.25-.6-1.51-2.18-5.25-2.11-5c0-.2,0-.41,0-.61l-.72-1.14a7.61,7.61,0,0,0-12.08,0l-25,34-16.54,21.67a21.6,21.6,0,0,1-4.35,4.4A22.21,22.21,0,0,1,168.81,296l-10-11.11-4.53-5.07a7.61,7.61,0,0,0-5.61-2.47h0A7.27,7.27,0,0,0,143,279.9l-4.65,5.25L98.19,330.6l-8.09,9.12H70.43l27.76-31.39,33.74-38.21a23.74,23.74,0,0,1,6.46-5.07,22.73,22.73,0,0,1,10.2-2.47h0A22.46,22.46,0,0,1,158.73,265a23.46,23.46,0,0,1,6.46,4.95l14.61,16.24a7.56,7.56,0,0,0,6,2.47,7.47,7.47,0,0,0,5.68-3.07l7.54-10.27,20.46-27.7,13.16-18.11a22,22,0,0,1,20.64-8.87,22.84,22.84,0,0,1,6.4,1.69,22.47,22.47,0,0,1,11.53,12.07l1.63,3.86.48,1.15,4.47,10.87.66,1.5,1.63,4,21.25,51.06a7.6,7.6,0,0,0,13.4,1.09l5.67-8.93,20.47-32.6,37.24-59.51,23-36.64L376,154.6Z"/></svg>